<svg xmlns="http://www.w3.org/2000/svg" xmlns:xlink="http://www.w3.org/1999/xlink" fill="none" version="1.1" width="1756" height="580" viewBox="0 0 1756 580"><defs><clipPath id="master_svg0_0_24"><rect x="0" y="0" width="1756" height="580" rx="0"/></clipPath></defs><g clip-path="url(#master_svg0_0_24)"><g><g><g><path d="M341.421,238.5787Q344.893,242.0504,348.19,245.6883Q351.487,249.3261,354.602,253.1214Q357.717,256.9167,360.642,260.8602Q363.566,264.8037,366.294,268.88599999999997Q369.022,272.9683,371.546,277.1795Q374.07,281.391,376.384,285.721Q378.699,290.051,380.798,294.48900000000003Q382.897,298.927,384.776,303.46299999999997Q386.655,307.999,388.309,312.622Q389.963,317.245,391.388,321.943Q392.813,326.64099999999996,394.006,331.404Q395.199,336.16700000000003,396.157,340.98199999999997Q397.115,345.797,397.835,350.654Q398.556,355.51099999999997,399.037,360.397Q399.518,365.283,399.759,370.187Q400,375.09000000000003,400,380Q400,384.90999999999997,399.759,389.81399999999996Q399.518,394.717,399.037,399.603Q398.556,404.49,397.835,409.346Q397.115,414.203,396.157,419.01800000000003Q395.199,423.83299999999997,394.006,428.596Q392.813,433.35900000000004,391.388,438.057Q389.963,442.755,388.309,447.378Q386.655,452.001,384.776,456.537Q382.897,461.073,380.798,465.511Q378.699,469.949,376.384,474.279Q374.07,478.609,371.546,482.821Q369.022,487.032,366.294,491.114Q363.566,495.196,360.641,499.14Q357.717,503.083,354.602,506.879Q351.487,510.674,348.19,514.312Q344.893,517.95,341.421,521.421Q337.95,524.893,334.312,528.19Q330.674,531.4870000000001,326.879,534.602Q323.083,537.717,319.14,540.642Q315.196,543.566,311.114,546.294Q307.032,549.0219999999999,302.82,551.546Q298.609,554.0699999999999,294.279,556.384Q289.949,558.6990000000001,285.511,560.798Q281.073,562.8969999999999,276.537,564.7760000000001Q272.001,566.655,267.378,568.309Q262.755,569.963,258.057,571.3879999999999Q253.359,572.813,248.596,574.006Q243.833,575.1990000000001,239.018,576.1569999999999Q234.203,577.115,229.346,577.835Q224.489,578.556,219.603,579.037Q214.717,579.518,209.813,579.759Q204.91,580,200,580Q195.09,580,190.186,579.759Q185.283,579.518,180.397,579.037Q175.51,578.556,170.654,577.835Q165.797,577.115,160.982,576.1569999999999Q156.166,575.1990000000001,151.404,574.006Q146.641,572.813,141.943,571.3879999999999Q137.245,569.963,132.622,568.309Q127.999,566.655,123.463,564.7760000000001Q118.927,562.8969999999999,114.489,560.798Q110.051,558.6990000000001,105.721,556.384Q101.391,554.0699999999999,97.1794,551.546Q92.9682,549.0219999999999,88.8859,546.294Q84.8036,543.566,80.8601,540.6410000000001Q76.9166,537.717,73.1213,534.602Q69.326,531.4870000000001,65.6882,528.19Q62.0503,524.893,58.5786,521.421Q55.1069,517.95,51.8097,514.312Q48.5126,510.674,45.3979,506.879Q42.2832,503.083,39.3585,499.14Q36.4337,495.196,33.706,491.114Q30.9783,487.032,28.4542,482.82Q25.9301,478.609,23.6157,474.279Q21.3013,469.949,19.2021,465.511Q17.1029,461.073,15.2241,456.537Q13.3452,452.001,11.6912,447.378Q10.0371,442.755,8.61191,438.057Q7.1867,433.35900000000004,5.99373,428.596Q4.80077,423.83299999999997,3.84293,419.01800000000003Q2.88509,414.203,2.16469,409.346Q1.44428,404.48900000000003,0.963048,399.603Q0.481813,394.717,0.240906,389.813Q-0.00000158922,384.90999999999997,0,380Q0.00000158922,375.09000000000003,0.240912,370.18600000000004Q0.481822,365.283,0.963061,360.397Q1.4443,355.51,2.16471,350.654Q2.88511,345.797,3.84296,340.98199999999997Q4.8008,336.166,5.99376,331.404Q7.18673,326.64099999999996,8.61195,321.943Q10.0372,317.245,11.6912,312.622Q13.3452,307.999,15.2241,303.46299999999997Q17.103,298.927,19.2022,294.48900000000003Q21.3013,290.051,23.6158,285.721Q25.9302,281.391,28.4543,277.1794Q30.9784,272.9682,33.7061,268.8859Q36.4338,264.8036,39.3585,260.8601Q42.2833,256.9166,45.398,253.12130000000002Q48.5126,249.326,51.8098,245.6882Q55.107,242.0503,58.5787,238.5786Q60.3143,236.84300000000002,62.0919,235.1505Q63.8696,233.4581,65.6883,231.8097Q67.5069,230.16140000000001,69.3655,228.5582Q71.224,226.95499999999998,73.1214,225.3979Q75.0187,223.8408,76.9537,222.3307Q78.8887,220.8206,80.8602,219.3585Q82.8316,217.8963,84.8384,216.483Q86.8451,215.0697,88.886,213.70600000000002Q90.9268,212.3424,93.0005,211.0293Q95.0742,209.7161,97.1795,208.4543Q99.2848,207.1924,101.42,205.9826Q103.556,204.7728,105.721,203.6157Q107.885,202.4587,110.078,201.3551Q112.27,200.2516,114.489,199.2021Q116.708,198.1527,118.952,197.15800000000002Q121.196,196.1634,123.463,195.2241Q125.731,194.2848,128.021,193.4014Q130.311,192.5181,132.622,191.6912Q134.933,190.86430000000001,137.264,190.0944Q139.594,189.32443,141.943,188.61193Q144.292,187.89942,146.657,187.24478Q149.023,186.59014,151.404,185.99374Q153.785,185.39735,156.18,184.85957Q158.575,184.32179,160.982,183.84294Q163.389,183.36409,165.808,182.94447Q168.226,182.52484,170.654,182.1647Q173.082,181.80455,175.518,181.50409Q177.954,181.20364,180.397,180.963054Q182.839,180.722472,185.287,180.541908Q187.735,180.361345,190.186,180.240909Q192.638,180.120472,195.092,180.0602362Q197.545,180,200,180L200,240Q196.563,240,193.131,240.1686Q189.698,240.3373,186.278,240.6741Q182.857,241.011,179.458,241.5153Q176.058,242.0196,172.687,242.6901Q169.317,243.3605,165.983,244.1956Q162.649,245.0307,159.36,246.0283Q156.071,247.026,152.835,248.18380000000002Q149.599,249.3416,146.424,250.6569Q143.249,251.9721,140.142,253.44150000000002Q137.035,254.9109,134.004,256.531Q130.973,258.1511,128.026,259.918Q125.078,261.68489999999997,122.22,263.5942Q119.363,265.5036,116.602,267.5509Q113.842,269.5982,111.185,271.7785Q108.528,273.9588,105.982,276.2668Q103.435,278.5749,101.005,281.005Q98.5749,283.435,96.2668,285.98199999999997Q93.9588,288.528,91.7785,291.185Q89.5982,293.842,87.5509,296.602Q85.5036,299.363,83.5942,302.22Q81.6849,305.078,79.918,308.026Q78.1511,310.973,76.531,314.004Q74.9109,317.03499999999997,73.4415,320.142Q71.9721,323.249,70.6569,326.424Q69.3416,329.599,68.1838,332.83500000000004Q67.026,336.071,66.0283,339.36Q65.0307,342.649,64.1956,345.983Q63.3605,349.317,62.6901,352.687Q62.0196,356.058,61.5153,359.45799999999997Q61.011,362.85699999999997,60.6741,366.278Q60.3373,369.698,60.1686,373.131Q60,376.563,60,380Q60,383.437,60.1686,386.869Q60.3373,390.302,60.6741,393.722Q61.011,397.14300000000003,61.5153,400.54200000000003Q62.0196,403.942,62.6901,407.313Q63.3605,410.683,64.1956,414.017Q65.0307,417.351,66.0283,420.64Q67.026,423.929,68.1838,427.16499999999996Q69.3416,430.4,70.6569,433.576Q71.9721,436.751,73.4415,439.858Q74.9109,442.965,76.531,445.996Q78.1511,449.027,79.918,451.974Q81.6849,454.922,83.5942,457.78Q85.5036,460.637,87.5509,463.398Q89.5982,466.158,91.7785,468.815Q93.9588,471.472,96.2668,474.018Q98.5749,476.565,101.005,478.995Q103.435,481.425,105.982,483.733Q108.528,486.041,111.185,488.221Q113.842,490.402,116.602,492.449Q119.363,494.496,122.22,496.406Q125.078,498.315,128.026,500.082Q130.973,501.849,134.004,503.469Q137.035,505.089,140.142,506.558Q143.249,508.028,146.424,509.343Q149.599,510.658,152.835,511.816Q156.071,512.9739999999999,159.36,513.972Q162.649,514.969,165.983,515.804Q169.317,516.639,172.687,517.31Q176.058,517.98,179.458,518.485Q182.857,518.989,186.278,519.326Q189.698,519.663,193.131,519.831Q196.563,520,200,520Q203.437,520,206.869,519.831Q210.302,519.663,213.722,519.326Q217.143,518.989,220.542,518.485Q223.942,517.98,227.313,517.31Q230.683,516.639,234.017,515.804Q237.351,514.969,240.64,513.972Q243.929,512.9739999999999,247.165,511.816Q250.4,510.658,253.576,509.343Q256.751,508.028,259.858,506.558Q262.965,505.089,265.996,503.469Q269.027,501.849,271.974,500.082Q274.922,498.315,277.78,496.406Q280.637,494.496,283.398,492.449Q286.158,490.402,288.815,488.221Q291.472,486.041,294.018,483.733Q296.565,481.425,298.995,478.995Q301.425,476.565,303.733,474.018Q306.041,471.472,308.221,468.815Q310.402,466.158,312.449,463.398Q314.496,460.637,316.406,457.78Q318.315,454.922,320.082,451.974Q321.849,449.027,323.469,445.996Q325.089,442.965,326.558,439.858Q328.028,436.751,329.343,433.576Q330.658,430.4,331.816,427.16499999999996Q332.974,423.929,333.972,420.64Q334.969,417.351,335.804,414.017Q336.639,410.683,337.31,407.313Q337.98,403.942,338.485,400.54200000000003Q338.989,397.14300000000003,339.326,393.722Q339.663,390.302,339.831,386.869Q340,383.437,340,380Q340,378.28200000000004,339.958,376.56399999999996Q339.916,374.847,339.831,373.131Q339.747,371.414,339.621,369.701Q339.494,367.988,339.326,366.278Q339.157,364.568,338.947,362.863Q338.737,361.15700000000004,338.485,359.45799999999997Q338.233,357.75800000000004,337.939,356.065Q337.645,354.372,337.31,352.687Q336.975,351.002,336.598,349.326Q336.222,347.649,335.804,345.983Q335.387,344.31600000000003,334.929,342.65999999999997Q334.47,341.004,333.972,339.36Q333.473,337.716,332.934,336.08500000000004Q332.395,334.453,331.816,332.83500000000004Q331.237,331.21799999999996,330.619,329.615Q330.001,328.012,329.343,326.424Q328.686,324.837,327.989,323.26599999999996Q327.293,321.696,326.558,320.142Q325.824,318.589,325.051,317.054Q324.279,315.52,323.469,314.005Q322.659,312.48900000000003,321.812,310.994Q320.965,309.499,320.082,308.026Q319.199,306.552,318.28,305.1Q317.36,303.649,316.406,302.22Q315.451,300.79200000000003,314.462,299.387Q313.473,297.98199999999997,312.449,296.602Q311.426,295.222,310.369,293.868Q309.312,292.51300000000003,308.222,291.185Q307.132,289.85699999999997,306.009,288.556Q304.887,287.255,303.733,285.98199999999997Q302.579,284.709,301.395,283.464Q300.21,282.22,298.995,281.005L341.421,238.5787Z" fill="#34D399" fill-opacity="1"/><path d="M342.127,239.2876Q341.776,238.9337,341.424,238.5817L341.421,238.5787L340.714,239.2858L299.702,280.298L298.995,281.005L298.997,281.007Q300.212,282.222,301.397,283.466Q302.581,284.711,303.735,285.984Q304.889,287.257,306.011,288.558Q307.133,289.859,308.223,291.187Q309.313,292.515,310.37,293.87Q311.427,295.224,312.451,296.604Q313.474,297.984,314.463,299.389Q315.452,300.793,316.407,302.222Q317.361,303.651,318.281,305.102Q319.2,306.554,320.083,308.027Q320.966,309.501,321.813,310.996Q322.66,312.491,323.47,314.006Q324.28,315.52099999999996,325.052,317.05600000000004Q325.825,318.591,326.559,320.144Q327.294,321.697,327.99,323.26800000000003Q328.686,324.83799999999997,329.344,326.426Q330.001,328.01300000000003,330.62,329.616Q331.238,331.219,331.817,332.837Q332.395,334.454,332.934,336.086Q333.473,337.717,333.972,339.361Q334.471,341.005,334.929,342.661Q335.387,344.317,335.805,345.98400000000004Q336.222,347.65,336.599,349.327Q336.975,351.003,337.31,352.688Q337.645,354.373,337.939,356.06600000000003Q338.233,357.759,338.485,359.45799999999997Q338.737,361.158,338.947,362.863Q339.158,364.568,339.326,366.278Q339.494,367.988,339.621,369.701Q339.747,371.41499999999996,339.831,373.131Q339.916,374.847,339.958,376.56399999999996Q340,378.28200000000004,340,380Q340,383.437,339.831,386.869Q339.663,390.302,339.326,393.722Q338.989,397.14300000000003,338.485,400.54200000000003Q337.98,403.942,337.31,407.313Q336.639,410.683,335.804,414.017Q334.969,417.351,333.972,420.64Q332.974,423.929,331.816,427.16499999999996Q330.658,430.4,329.343,433.576Q328.028,436.751,326.558,439.858Q325.089,442.965,323.469,445.996Q321.849,449.027,320.082,451.974Q318.315,454.922,316.406,457.78Q314.496,460.637,312.449,463.398Q310.402,466.158,308.221,468.815Q306.041,471.472,303.733,474.018Q301.425,476.565,298.995,478.995Q296.565,481.425,294.018,483.733Q291.472,486.041,288.815,488.221Q286.158,490.402,283.398,492.449Q280.637,494.496,277.78,496.406Q274.922,498.315,271.974,500.082Q269.027,501.849,265.996,503.469Q262.965,505.089,259.858,506.558Q256.751,508.028,253.576,509.343Q250.4,510.658,247.165,511.816Q243.929,512.9739999999999,240.64,513.972Q237.351,514.969,234.017,515.804Q230.683,516.639,227.313,517.31Q223.942,517.98,220.542,518.485Q217.143,518.989,213.722,519.326Q210.302,519.663,206.869,519.831Q203.437,520,200,520Q196.563,520,193.131,519.831Q189.698,519.663,186.278,519.326Q182.857,518.989,179.458,518.485Q176.058,517.98,172.687,517.31Q169.317,516.639,165.983,515.804Q162.649,514.969,159.36,513.972Q156.071,512.9739999999999,152.835,511.816Q149.599,510.658,146.424,509.343Q143.249,508.028,140.142,506.558Q137.035,505.089,134.004,503.469Q130.973,501.849,128.026,500.082Q125.078,498.315,122.22,496.406Q119.363,494.496,116.602,492.449Q113.842,490.402,111.185,488.221Q108.528,486.041,105.982,483.733Q103.435,481.425,101.005,478.995Q98.5749,476.565,96.2668,474.018Q93.9588,471.472,91.7785,468.815Q89.5982,466.158,87.5509,463.398Q85.5036,460.637,83.5942,457.78Q81.6849,454.922,79.918,451.974Q78.1511,449.027,76.531,445.996Q74.9109,442.965,73.4415,439.858Q71.9721,436.751,70.6569,433.576Q69.3416,430.4,68.1838,427.16499999999996Q67.026,423.929,66.0283,420.64Q65.0307,417.351,64.1956,414.017Q63.3605,410.683,62.6901,407.313Q62.0196,403.942,61.5153,400.54200000000003Q61.011,397.14300000000003,60.6741,393.722Q60.3373,390.302,60.1686,386.869Q60,383.437,60,380Q60,376.563,60.1686,373.131Q60.3373,369.698,60.6741,366.278Q61.011,362.85699999999997,61.5153,359.45799999999997Q62.0196,356.058,62.6901,352.687Q63.3605,349.317,64.1956,345.983Q65.0307,342.649,66.0283,339.36Q67.026,336.071,68.1838,332.83500000000004Q69.3416,329.599,70.6569,326.424Q71.9721,323.249,73.4415,320.142Q74.9109,317.03499999999997,76.531,314.004Q78.1511,310.973,79.918,308.026Q81.6849,305.078,83.5942,302.22Q85.5036,299.363,87.5509,296.602Q89.5982,293.842,91.7785,291.185Q93.9588,288.528,96.2668,285.98199999999997Q98.5749,283.435,101.005,281.005Q103.435,278.5749,105.982,276.2668Q108.528,273.9588,111.185,271.7785Q113.842,269.5983,116.602,267.5509Q119.363,265.5036,122.22,263.5942Q125.078,261.68489999999997,128.026,259.918Q130.973,258.1511,134.004,256.531Q137.035,254.9109,140.142,253.44150000000002Q143.249,251.9721,146.424,250.6569Q149.599,249.3417,152.835,248.18380000000002Q156.071,247.026,159.36,246.0284Q162.649,245.0307,165.983,244.1956Q169.317,243.3605,172.687,242.6901Q176.058,242.0196,179.458,241.5153Q182.857,241.011,186.278,240.6741Q189.698,240.3373,193.131,240.1686Q196.563,240,200,240L200,180Q199.5,180,199,180.00250002Q196.561,180.0146943,194.123,180.086356Q191.686,180.158018,189.25,180.289104Q186.815,180.420191,184.383,180.610624Q181.952,180.801057,179.526,181.05072Q177.1,181.30039,174.681,181.60914Q172.261,181.91789,169.85,182.28555Q167.439,182.6532,165.038,183.07954Q162.637,183.50587,160.247,183.99064Q157.856,184.4754,155.479,185.01830999999999Q153.101,185.56121,150.737,186.16194Q148.374,186.76266,146.025,187.42085Q143.677,188.07903,141.345,188.79429Q139.014,189.50954,136.7,190.2814Q134.387,191.0533,132.093,191.88139999999999Q129.799,192.7095,127.526,193.5933Q125.252,194.4771,123.002,195.416Q120.751,196.3549,118.523,197.3485Q116.296,198.34199999999998,114.094,199.3896Q111.891,200.4372,109.715,201.5381Q107.539,202.63909999999998,105.39,203.7928Q103.241,204.94650000000001,101.121,206.1523Q99.0015,207.358,96.9116,208.6151Q94.8216,209.8722,92.763,211.1799Q90.7044,212.4876,88.6782,213.8451Q86.6521,215.2026,84.6596,216.6091Q82.6672,218.0156,80.7096,219.4702Q78.7521,220.9249,76.8306,222.4269Q74.9091,223.9288,73.0248,225.4772Q71.1405,227.0256,69.2945,228.61939999999998Q67.4485,230.2133,65.642,231.8517Q63.8354,233.49009999999998,62.0693,235.1721Q60.3032,236.85410000000002,58.5787,238.5786Q55.107,242.0503,51.8098,245.6882Q48.5127,249.326,45.398,253.12130000000002Q42.2833,256.9166,39.3585,260.8601Q36.4338,264.8036,33.7061,268.8859Q30.9784,272.9682,28.4543,277.1794Q25.9302,281.391,23.6158,285.721Q21.3013,290.051,19.2022,294.48900000000003Q17.103,298.927,15.2241,303.46299999999997Q13.3452,307.999,11.6912,312.622Q10.0372,317.245,8.61195,321.943Q7.18673,326.64099999999996,5.99376,331.404Q4.8008,336.166,3.84296,340.98199999999997Q2.88511,345.797,2.16471,350.654Q1.4443,355.51,0.963061,360.397Q0.481822,365.283,0.240912,370.18600000000004Q0.00000158922,375.09000000000003,0,380Q-0.00000158922,384.90999999999997,0.240906,389.813Q0.481813,394.717,0.963048,399.603Q1.44428,404.48900000000003,2.16469,409.346Q2.88509,414.203,3.84293,419.01800000000003Q4.80077,423.83299999999997,5.99373,428.596Q7.1867,433.35900000000004,8.61191,438.057Q10.0371,442.755,11.6912,447.378Q13.3452,452.001,15.2241,456.537Q17.1029,461.073,19.2021,465.511Q21.3013,469.949,23.6157,474.279Q25.9301,478.609,28.4542,482.82Q30.9783,487.032,33.706,491.114Q36.4337,495.196,39.3585,499.14Q42.2832,503.083,45.3979,506.879Q48.5126,510.674,51.8097,514.312Q55.1069,517.95,58.5786,521.421Q62.0503,524.893,65.6882,528.19Q69.326,531.4870000000001,73.1213,534.602Q76.9166,537.717,80.8601,540.6410000000001Q84.8036,543.566,88.8859,546.294Q92.9682,549.0219999999999,97.1794,551.546Q101.391,554.0699999999999,105.721,556.384Q110.051,558.6990000000001,114.489,560.798Q118.927,562.8969999999999,123.463,564.7760000000001Q127.999,566.655,132.622,568.309Q137.245,569.963,141.943,571.3879999999999Q146.641,572.813,151.404,574.006Q156.166,575.1990000000001,160.982,576.1569999999999Q165.797,577.115,170.654,577.835Q175.51,578.556,180.397,579.037Q185.283,579.518,190.186,579.759Q195.09,580,200,580Q204.91,580,209.813,579.759Q214.717,579.518,219.603,579.037Q224.489,578.556,229.346,577.835Q234.203,577.115,239.018,576.1569999999999Q243.833,575.1990000000001,248.596,574.006Q253.359,572.813,258.057,571.3879999999999Q262.755,569.963,267.378,568.309Q272.001,566.655,276.537,564.7760000000001Q281.073,562.8969999999999,285.511,560.798Q289.949,558.6990000000001,294.279,556.384Q298.609,554.0699999999999,302.82,551.546Q307.032,549.0219999999999,311.114,546.294Q315.196,543.566,319.14,540.6410000000001Q323.083,537.717,326.879,534.602Q330.674,531.4870000000001,334.312,528.19Q337.95,524.893,341.421,521.421Q343.157,519.6859999999999,344.849,517.908Q346.542,516.13,348.19,514.312Q349.839,512.4929999999999,351.442,510.635Q353.045,508.776,354.602,506.879Q356.159,504.981,357.669,503.046Q359.179,501.111,360.641,499.14Q362.104,497.168,363.517,495.162Q364.93,493.155,366.294,491.114Q367.658,489.073,368.971,487Q370.284,484.926,371.546,482.821Q372.808,480.715,374.017,478.58Q375.227,476.444,376.384,474.279Q377.541,472.115,378.645,469.922Q379.748,467.73,380.798,465.511Q381.847,463.292,382.842,461.048Q383.837,458.804,384.776,456.537Q385.715,454.269,386.599,451.979Q387.482,449.689,388.309,447.378Q389.136,445.067,389.906,442.736Q390.676,440.406,391.388,438.057Q392.101,435.70799999999997,392.755,433.34299999999996Q393.41,430.977,394.006,428.596Q394.603,426.21500000000003,395.14,423.82Q395.678,421.425,396.157,419.01800000000003Q396.636,416.611,397.055,414.192Q397.475,411.774,397.835,409.346Q398.195,406.918,398.496,404.48199999999997Q398.796,402.046,399.037,399.60400000000004Q399.277,397.161,399.458,394.71299999999997Q399.639,392.265,399.759,389.81399999999996Q399.879,387.36199999999997,399.94,384.908Q400,382.45500000000004,400,380Q400,377.56100000000004,399.94,375.123Q399.881,372.685,399.762,370.249Q399.643,367.813,399.465,365.381Q399.287,362.948,399.049,360.52099999999996Q398.812,358.094,398.515,355.673Q398.218,353.252,397.863,350.839Q397.507,348.427,397.093,346.023Q396.678,343.62,396.206,341.227Q395.733,338.83500000000004,395.202,336.454Q394.671,334.074,394.082,331.707Q393.493,329.341,392.847,326.98900000000003Q392.2,324.637,391.497,322.302Q390.793,319.967,390.033,317.65Q389.272,315.332,388.456,313.034Q387.639,310.736,386.767,308.459Q385.894,306.181,384.967,303.926Q384.039,301.67,383.057,299.438Q382.074,297.206,381.038,294.998Q380.001,292.79,378.911,290.609Q377.821,288.427,376.678,286.272Q375.535,284.118,374.34,281.992Q373.145,279.866,371.898,277.76980000000003Q370.652,275.67359999999996,369.354,273.6085Q368.057,271.5433,366.709,269.5104Q365.362,267.4775,363.966,265.478Q362.569,263.47860000000003,361.124,261.5138Q359.679,259.549,358.187,257.62Q356.695,255.691,355.156,253.799Q353.617,251.90699999999998,352.032,250.053Q350.448,248.1991,348.818,246.3844Q347.189,244.56959999999998,345.516,242.7952Q343.843,241.0207,342.127,239.2876ZM341.42,239.9946Q367.753,266.5855,382.631,300.962Q399,338.78499999999997,399,380Q399,421.214,382.631,459.038Q367.555,493.874,340.714,520.7139999999999Q313.874,547.5550000000001,279.038,562.631Q241.215,579,200,579Q158.785,578.999,120.962,562.631Q86.1265,547.5550000000001,59.2857,520.7139999999999Q32.4453,493.875,17.3693,459.038Q1,421.21299999999997,1,380Q1.00002,338.78499999999997,17.3694,300.962Q32.4456,266.126,59.2858,239.2857Q87.2756,211.2959,123.846,196.148Q159.955,181.19144,199,181.00242L199,239.0034Q172.64,239.1842,148.099,248.8999Q120.947,259.6489,100.298,280.298Q79.6489,300.947,68.8998,328.099Q59,353.105,59,380Q59,406.895,68.8999,431.901Q79.6492,459.054,100.298,479.702Q120.948,500.351,148.099,511.1Q173.105,521,200,521Q226.895,521,251.901,511.1Q279.053,500.351,299.702,479.702Q320.351,459.053,331.1,431.901Q341,406.89599999999996,341,380Q341,351.953,330.267,326.04200000000003Q319.726,300.593,300.407,281.008L341.42,239.9946Z" fill-rule="evenodd" fill-opacity="0" stroke-opacity="1" stroke="#34D399" fill="none" stroke-width="1"/></g><g><path d="M199.99970011901854,442.00010217285154C199.99970011901854,442.00010217285154,186.84770011901855,463.26110217285157,186.84770011901855,463.26110217285157C186.84770011901855,463.26110217285157,207.75570011901854,476.19510217285153,207.75570011901854,476.19510217285153C207.75570011901854,476.19510217285153,221.03770011901855,455.50610217285157,221.03770011901855,455.50610217285157C221.03770011901855,455.50610217285157,199.99970011901854,442.00010217285154,199.99970011901854,442.00010217285154C199.99970011901854,442.00010217285154,199.99970011901854,442.00010217285154,199.99970011901854,442.00010217285154ZM459.99970011901854,37.000002172851566C459.99970011901854,37.000002172851566,484.1687001190186,30.608202172851563,484.1687001190186,30.608202172851563C484.1687001190186,30.608202172851563,477.7767001190185,6.4391021728515625,477.7767001190185,6.4391021728515625C477.7767001190185,6.4391021728515625,453.60770011901855,12.830902172851562,453.60770011901855,12.830902172851562C453.60770011901855,12.830902172851562,459.99970011901854,37.000002172851566,459.99970011901854,37.000002172851566C459.99970011901854,37.000002172851566,459.99970011901854,37.000002172851566,459.99970011901854,37.000002172851566ZM20.347700119018555,360.26110217285157C20.347700119018555,360.26110217285157,186.84770011901855,463.26110217285157,186.84770011901855,463.26110217285157C186.84770011901855,463.26110217285157,213.15170011901856,420.7391021728516,213.15170011901856,420.7391021728516C213.15170011901856,420.7391021728516,46.652300119018555,317.7391021728516,46.652300119018555,317.7391021728516C46.652300119018555,317.7391021728516,20.347700119018555,360.26110217285157,20.347700119018555,360.26110217285157C20.347700119018555,360.26110217285157,20.347700119018555,360.26110217285157,20.347700119018555,360.26110217285157ZM221.03770011901855,455.50610217285157C221.03770011901855,455.50610217285157,481.03770011901855,50.50580217285156,481.03770011901855,50.50580217285156C481.03770011901855,50.50580217285156,438.96170011901853,23.494202172851562,438.96170011901853,23.494202172851562C438.96170011901853,23.494202172851562,178.96170011901856,428.49410217285157,178.96170011901856,428.49410217285157C178.96170011901856,428.49410217285157,221.03770011901855,455.50610217285157,221.03770011901855,455.50610217285157C221.03770011901855,455.50610217285157,221.03770011901855,455.50610217285157,221.03770011901855,455.50610217285157ZM453.60770011901855,12.830902172851562C453.60770011901855,12.830902172851562,332.60770011901855,44.830902172851566,332.60770011901855,44.830902172851566C332.60770011901855,44.830902172851566,345.39170011901854,93.16910217285157,345.39170011901854,93.16910217285157C345.39170011901854,93.16910217285157,466.39170011901854,61.16910217285156,466.39170011901854,61.16910217285156C466.39170011901854,61.16910217285156,453.60770011901855,12.830902172851562,453.60770011901855,12.830902172851562C453.60770011901855,12.830902172851562,453.60770011901855,12.830902172851562,453.60770011901855,12.830902172851562ZM435.83070011901856,43.39180217285156C435.83070011901856,43.39180217285156,467.83070011901856,164.39210217285157,467.83070011901856,164.39210217285157C467.83070011901856,164.39210217285157,516.1687001190186,151.60810217285157,516.1687001190186,151.60810217285157C516.1687001190186,151.60810217285157,484.1687001190186,30.608202172851563,484.1687001190186,30.608202172851563C484.1687001190186,30.608202172851563,435.83070011901856,43.39180217285156,435.83070011901856,43.39180217285156C435.83070011901856,43.39180217285156,435.83070011901856,43.39180217285156,435.83070011901856,43.39180217285156Z" fill="#34D399" fill-opacity="1"/></g></g><g><path d="M713.25,175.2Q713.25,193.05,709.4,208.45Q705.55,223.85,695.925,235.39999999999998Q686.3,246.95,670.025,253.60000000000002Q653.75,260.25,628.9,260.25Q605.8,260.25,588.825,253.77499999999998Q571.85,247.3,562.75,239.95L578.5,205.3Q587.25,211.25,600.025,216.675Q612.8,222.1,626.1,222.1Q648.5,222.1,658.65,210.9Q668.8,199.7,668.8,172.4L668.8,12.450000000000003L713.25,12.450000000000003L713.25,175.2ZM805.65,133.55Q805.65,153.5,810.55,169.775Q815.45,186.05,824.725,197.425Q834,208.8,847.3,215.1Q860.6,221.4,877.4,221.4Q893.85,221.4,907.15,215.1Q920.45,208.8,929.725,197.425Q939,186.05,943.9,169.775Q948.8,153.5,948.8,133.55Q948.8,113.6,943.9,97.325Q939,81.05,929.725,69.675Q920.45,58.3,907.15,52Q893.85,45.7,877.4,45.7Q860.6,45.7,847.3,52Q834,58.3,824.725,69.85Q815.45,81.4,810.55,97.5Q805.65,113.6,805.65,133.55ZM995,133.55Q995,164.7,985.725,188.5Q976.45,212.3,960.525,228.22500000000002Q944.6,244.14999999999998,923.25,252.2Q901.9,260.25,877.75,260.25Q853.6,260.25,832.075,252.2Q810.55,244.14999999999998,794.625,228.22500000000002Q778.7,212.3,769.25,188.5Q759.8,164.7,759.8,133.55Q759.8,102.4,769.25,78.775Q778.7,55.150000000000006,794.975,39.05Q811.25,22.950000000000003,832.6,14.899999999999999Q853.95,6.850000000000001,877.75,6.850000000000001Q901.55,6.850000000000001,922.9,14.899999999999999Q944.25,22.950000000000003,960.175,39.05Q976.1,55.150000000000006,985.55,78.775Q995,102.4,995,133.55ZM1192.75,12.450000000000003L1236.85,12.450000000000003L1236.85,255L1192.75,255L1192.75,147.55L1087.4,147.55L1087.4,255L1043.3,255L1043.3,12.450000000000003L1087.4,12.450000000000003L1087.4,109.4L1192.75,109.4L1192.75,12.450000000000003ZM1458.4,255Q1446.5,235.05,1431.8,212.125Q1417.1,189.2,1401.35,165.925Q1385.6,142.65,1369.325,120.775Q1353.05,98.9,1338.35,81.4L1338.35,255L1294.95,255L1294.95,12.450000000000003L1331,12.450000000000003Q1345,27.15,1361.1,47.275000000000006Q1377.2,67.4,1393.475,89.1Q1409.75,110.80000000000001,1424.975,132.675Q1440.2,154.55,1452.1,173.45L1452.1,12.450000000000003L1495.85,12.450000000000003L1495.85,255L1458.4,255ZM751.05,355Q739.5,367.6,723.05,387.725Q706.6,407.85,689.1,431.475Q671.6,455.1,654.625,480.125Q637.65,505.15,624.7,527.55L754.9,527.55L754.9,565L571.5,565L571.5,537.35Q578.5,524.4,587.775,509.17499999999995Q597.05,493.95000000000005,607.55,477.85Q618.05,461.75,629.425,445.3Q640.8,428.85,652,413.625Q663.2,398.4,673.875,384.575Q684.55,370.75,694,359.9L577.45,359.9L577.45,322.45L751.05,322.45L751.05,355ZM945.3,322.45L989.4,322.45L989.4,565L945.3,565L945.3,457.55L839.95,457.55L839.95,565L795.85,565L795.85,322.45L839.95,322.45L839.95,419.4L945.3,419.4L945.3,322.45ZM1208.5,565Q1203.6,550.65,1198.35,536.65Q1193.1,522.65,1188.2,507.95000000000005L1086,507.95000000000005Q1081.1,522.65,1076.025,536.825Q1070.95,551,1066.05,565L1020.2,565Q1033.85,526.15,1046.1,493.25Q1058.35,460.35,1070.075,430.95Q1081.8,401.55,1093.35,374.95Q1104.9,348.35,1117.15,322.45L1158.8,322.45Q1171.05,348.35,1182.6,374.95Q1194.15,401.55,1205.875,430.95Q1217.6,460.35,1230.025,493.25Q1242.45,526.15,1256.1,565L1208.5,565ZM1137.1,369.35Q1129.05,387.9,1118.725,414.5Q1108.4,441.1,1097.2,472.25L1177,472.25Q1165.8,441.1,1155.3,414.15Q1144.8,387.2,1137.1,369.35ZM1450.35,565Q1438.45,545.05,1423.75,522.125Q1409.05,499.20000000000005,1393.3,475.925Q1377.55,452.65,1361.275,430.775Q1345,408.9,1330.3,391.4L1330.3,565L1286.9,565L1286.9,322.45L1322.95,322.45Q1336.95,337.15,1353.05,357.275Q1369.15,377.4,1385.425,399.1Q1401.7,420.8,1416.925,442.675Q1432.15,464.55,1444.05,483.45000000000005L1444.05,322.45L1487.8,322.45L1487.8,565L1450.35,565ZM1659.3,355.7Q1621.85,355.7,1602.07,378.975Q1582.3,402.25,1582.3,443.55Q1582.3,463.15,1587.03,479.425Q1591.75,495.70000000000005,1601.03,507.25Q1610.3,518.8,1624.12,525.275Q1637.95,531.75,1656.5,531.75Q1668.05,531.75,1676.45,530.875Q1684.85,530,1689.75,528.6L1689.75,441.45L1733.85,441.45L1733.85,558Q1724.75,561.5,1703.05,565.7Q1681.35,569.9,1653,569.9Q1626.75,569.9,1605.05,561.5Q1583.35,553.1,1568.12,537Q1552.9,520.9,1544.5,497.45000000000005Q1536.1,474,1536.1,443.55Q1536.1,413.1,1545.375,389.65Q1554.65,366.2,1570.75,349.925Q1586.85,333.65,1608.55,325.25Q1630.25,316.85,1654.75,316.85Q1671.55,316.85,1684.67,319.125Q1697.8,321.4,1707.25,324.2Q1716.7,327,1722.82,330.15Q1728.95,333.3,1731.4,334.7L1718.1,370.75Q1707.6,364.45,1692.03,360.075Q1676.45,355.7,1659.3,355.7Z" fill="#34D399" fill-opacity="1"/></g></g></g></svg>